<?xml version="1.0" standalone="no"?><!DOCTYPE svg PUBLIC "-//W3C//DTD SVG 1.1//EN" "http://www.w3.org/Graphics/SVG/1.1/DTD/svg11.dtd"><svg t="1483429889876" class="icon" style="" viewBox="0 0 1131 1024" version="1.1" xmlns="http://www.w3.org/2000/svg" p-id="2738" xmlns:xlink="http://www.w3.org/1999/xlink" width="17.671875" height="16"><defs><style type="text/css"></style></defs><path d="M563.539716 117.531905C580.277991 101.744834 595.521517 85.278332 612.813043 71.36455 798.608379-78.095773 1077.650806 24.842919 1120.493801 259.431128 1141.284398 373.264986 1106.594578 470.486749 1023.247773 550.494635 1019.573991 554.022825 1015.827412 557.478218 1012.236133 561.08891 864.149232 709.850389 716.062332 858.611867 568.057934 1007.455848 560.016379 1015.541081 551.222597 1021.277422 539.419905 1020.986237 524.967431 1020.631962 514.242123 1013.934711 508.112682 1000.991545 501.842502 987.742635 503.764322 975.017858 512.912379 963.52091 514.56728 961.438938 516.542483 959.61418 518.425479 957.721479 667.162692 808.256303 815.953289 658.834806 964.583735 509.262863 979.769024 493.985365 995.725953 479.04273 1008.441024 461.814294 1116.130882 315.891867 1031.337858 105.365232 852.55037 75.746882 760.836853 60.551886 683.677725 89.709194 622.485232 159.666351 607.848341 176.399773 591.16345 187.906427 568.69854 189.105137 543.598408 190.439735 523.734749 180.09782 507.894294 160.821384 482.488417 129.902408 451.220019 106.651299 414.346313 91.038938 268.307412 29.210692 101.152758 121.365839 76.61073 278.013573 63.686976 360.491678 87.835905 432.006673 146.106844 491.587943 188.178199 534.605649 231.127962 576.759507 273.573005 619.408379 316.537327 662.576531 359.394882 705.85145 402.233024 749.145782 416.408872 763.472076 417.952152 782.389384 406.426085 797.17672 393.448948 813.822787 369.528114 815.283564 353.838104 799.928417 337.886028 784.316057 322.365877 768.262066 306.651602 752.407052 242.421081 687.60872 178.506009 622.499791 113.79018 558.191621 91.863962 536.406142 70.379374 514.543014 53.446976 488.525649-68.239166 301.546161 40.824114 46.322654 260.227033 7.410654 379.753555-13.787602 480.120114 23.673327 560.676398 114.37255 561.778047 115.610085 562.908815 116.837915 563.539716 117.531905L563.539716 117.531905Z" p-id="2739" fill="#757575"></path></svg>