<?xml version="1.0" standalone="no"?><!DOCTYPE svg PUBLIC "-//W3C//DTD SVG 1.1//EN" "http://www.w3.org/Graphics/SVG/1.1/DTD/svg11.dtd"><svg t="1484042815901" class="icon" style="" viewBox="0 0 1024 1024" version="1.1" xmlns="http://www.w3.org/2000/svg" p-id="1849" xmlns:xlink="http://www.w3.org/1999/xlink" width="16" height="16"><defs><style type="text/css"></style></defs><path d="M617.799115 701.846836l-48.212048 0c0 0-6.189979-3.821025-6.189979-14.608719L563.397087 586.078159l-54.407144 0.690732 0 112.530936c0 0 5.258771 29.753651 44.683688 29.753651l91.331102 0L645.004733 593.039711 617.801161 593.039711l0 108.807125L617.799115 701.846836z" p-id="1850" fill="#0c5af0"></path><path d="M454.581776 593.039711l-51.003628 0c0 0-47.073108-1.858324-63.570851 51.53677-5.711072 35.622312 5.102205 49.197492 6.986111 53.715389 1.915629 4.457522 17.136286 30.760584 55.3097 30.760584l79.482239 0L481.785348 524.394285l-27.203572-0.611937L454.581776 593.039711zM454.581776 701.846836l-40.220027 0c0 0-24.781406-0.685615-32.407084-29.219485-3.825119-12.750395 0.610914-24.919553 2.603291-30.65723 1.858324-5.712095 10.147104-21.729907 27.282367-21.729907l42.741453 0L454.581776 701.846836z" p-id="1851" fill="#0c5af0"></path><path d="M512.575608 0C230.134911 0 1.170149 228.991368 1.170149 511.430018c0 282.437627 228.964762 511.394203 511.405459 511.394203 282.439674 0 511.403412-228.956575 511.403412-511.394203C1023.979021 228.991368 795.015282 0 512.575608 0zM543.762911 271.417643c4.063549-37.193087 48.53439-94.254687 84.186378-86.097914 35.545564 8.101515 67.954695 55.226812 61.393255 95.792717-6.431479 40.61707-38.706557 94.199429-88.917122 87.664595C550.297745 362.347608 538.928813 316.922023 543.762911 271.417643zM438.589547 169.059394c37.564547 0 67.956741 43.249013 67.956741 96.646154 0 53.447283-30.391171 96.697319-67.956741 96.697319-37.507242 0-67.950601-43.250036-67.950601-96.697319C370.637922 212.308407 401.082305 169.059394 438.589547 169.059394zM226.653623 398.050762c0 0 8.023744-79.562057 63.092967-84.47495 43.751457-3.77293 75.950809 44.097334 79.294974 71.486124 2.072195 17.769712 11.316743 99.06218-56.715723 113.696482C244.451988 513.345648 219.191675 434.81713 226.653623 398.050762zM744.488515 740.737588c-37.216623 87.722924-173.228343 42.161239-173.228343 42.161239s-50.161447-16.128329-108.361987-3.216251c-58.202587 13.018501-108.385523 8.079002-108.385523 8.079002s-68.087725 1.645476-87.479377-84.368526C247.64061 617.268532 334.986957 570.114582 341.522814 562.091862c6.42841-8.157797 51.776224-38.97364 80.83812-87.693248 29.220508-48.720631 116.564809-87.717807 178.064488 8.076956 45.344744 64.976874 123.05257 125.120672 123.05257 125.120672S781.65295 653.077086 744.488515 740.737588zM733.11856 540.944216c-74.487481 1.676176-77.649498-50.339502-77.649498-87.61036 0-39.050388 8.023744-94.28027 68.00893-94.28027 59.875692 0 75.998905 58.522881 75.998905 77.942163C799.475874 456.547037 807.632648 539.299763 733.11856 540.944216z" p-id="1852" fill="#0c5af0"></path></svg>