<?xml version="1.0" standalone="no"?><!DOCTYPE svg PUBLIC "-//W3C//DTD SVG 1.1//EN" "http://www.w3.org/Graphics/SVG/1.1/DTD/svg11.dtd"><svg t="1483511311565" class="icon" style="" viewBox="0 0 1024 1024" version="1.1" xmlns="http://www.w3.org/2000/svg" p-id="3083" xmlns:xlink="http://www.w3.org/1999/xlink" width="16" height="16"><defs><style type="text/css"></style></defs><path d="M534.75 64.622c61.339 1.259 132.582 20.758 198.9 58.229 11.456 6.474 16.845 17.626 14.663 29.53-2.248 12.284-11.159 21.021-23.639 22.999-7.216 1.144-13.689-1.108-19.885-4.624-36.368-20.631-75.101-34.911-116.065-43.189-174.361-35.231-353.302 54.908-429.269 216.204-30.743 65.275-42.532 133.923-35.783 205.621 16.2 172.171 145.897 313.93 316.321 346.222 207.352 39.287 408.361-92.241 454.6-298.41 21.414-95.481 8.050-186.748-38.456-272.977-4.446-8.239-9.020-16.262-6.86-26.178 2.588-11.874 11.658-20.403 23.794-22.267 10.935-1.684 22.11 3.902 28.128 14.404 16.451 28.726 29.538 58.925 39.21 90.591 75.786 248.211-74.398 508.16-327.252 566.44-238.686 55.012-478.703-94.005-535.048-332.189-56.384-238.338 88.014-476.749 325.39-537.253 36.997-9.437 74.669-13.744 131.253-13.152v0z" p-id="3084" fill="#2b8ff7"></path><path d="M484.76 567.332v-55.982h-6.945c-34.18 0-68.364 0.074-102.546-0.031-18.916-0.058-31.365-13.408-29.557-31.345 1.445-14.315 13.496-24.52 29.472-24.578 30.125-0.105 60.253-0.031 90.379-0.036h7.865c-2.144-2.318-3.403-3.777-4.766-5.141-37.816-37.836-75.666-75.638-113.454-113.5-10.387-10.41-12.361-23.902-5.42-35.347 8.633-14.238 27.552-17.876 40.805-7.771 2.136 1.63 4.052 3.573 5.96 5.481 37.29 37.268 74.58 74.538 111.797 111.877 1.471 1.476 2.221 3.674 3.31 5.535 0.811-0.239 1.618-0.483 2.429-0.723 1.282-1.7 2.379-3.58 3.871-5.071 37.657-37.722 75.398-75.356 113.002-113.134 8.042-8.080 17.359-11.557 28.395-8.756 21.094 5.353 27.893 31.059 12.457 46.947-11.302 11.634-22.905 22.975-34.377 34.447-26.49 26.494-52.972 52.995-79.505 79.447-1.471 1.468-3.396 2.487-5.11 3.716 0.329 0.665 0.656 1.328 0.985 1.993h5.917c30.318 0 60.64-0.062 90.958 0.027 15.486 0.047 26.409 8.599 29.418 22.67 3.187 14.895-7.142 30.206-22.16 32.666-3.029 0.495-6.15 0.591-9.228 0.595-33.408 0.038-66.82 0.027-100.229 0.027h-7.22v55.982h7.084c34.953 0.004 69.91-0.085 104.863 0.058 13.33 0.054 23.906 9.031 26.803 22.095 2.738 12.361-3.461 25.532-15.211 30.681-4.267 1.869-9.293 2.781-13.983 2.812-34.374 0.228-68.748 0.124-103.126 0.124h-6.81v7.432c-0.004 34.76 0.062 69.524-0.047 104.284-0.038 11.99-5.794 20.797-16.683 25.563-10.414 4.558-20.492 2.99-29.268-4.361-7.115-5.964-9.907-13.941-9.892-23.138 0.066-34.18 0.027-68.364 0.027-102.546v-7.231h-6.323c-35.147-0.004-70.297 0.066-105.443-0.047-12.055-0.038-22.245-7.432-26.189-18.443-3.877-10.822-0.698-23.045 8.031-30.573 5.671-4.894 12.314-6.771 19.778-6.748 34.374 0.105 68.752 0.047 103.126 0.047 2.071-0.004 4.156-0.004 6.759-0.004v0z" p-id="3085" fill="#2b8ff7"></path></svg>