<?xml version="1.0" standalone="no"?><!DOCTYPE svg PUBLIC "-//W3C//DTD SVG 1.1//EN" "http://www.w3.org/Graphics/SVG/1.1/DTD/svg11.dtd"><svg t="1483512679720" class="icon" style="" viewBox="0 0 1024 1024" version="1.1" xmlns="http://www.w3.org/2000/svg" p-id="3253" xmlns:xlink="http://www.w3.org/1999/xlink" width="16" height="16"><defs><style type="text/css"></style></defs><path d="M635.097 511.289c-4.374-3.261-7.249-4.901-9.502-7.162-105.248-105.151-210.421-210.382-315.691-315.514-10.817-10.8-16.557-22.984-13.226-38.469 6.162-28.638 40.191-40.504 62.748-21.832 2.481 2.049 4.708 4.412 6.99 6.694 114.907 114.891 229.808 229.788 344.71 344.69 20.901 20.901 20.917 42.278 0.033 63.163-115.472 115.478-230.993 230.901-346.357 346.481-11.446 11.467-24.516 16.546-40.202 12.538-27.239-6.957-37.862-39.992-20.19-61.926 2.184-2.712 4.747-5.135 7.216-7.603 104.624-104.634 209.247-209.27 313.926-313.854 2.266-2.26 5.144-3.917 9.547-7.205v0z" p-id="3254" fill="#c8c7cc"></path></svg>