<?xml version="1.0" standalone="no"?><!DOCTYPE svg PUBLIC "-//W3C//DTD SVG 1.1//EN" "http://www.w3.org/Graphics/SVG/1.1/DTD/svg11.dtd"><svg t="1483525349399" class="icon" style="" viewBox="0 0 1024 1024" version="1.1" xmlns="http://www.w3.org/2000/svg" p-id="3992" xmlns:xlink="http://www.w3.org/1999/xlink" width="16" height="16"><defs><style type="text/css"></style></defs><path d="M785.096377 372.724956c-47.170323-46.128597-94.266967-92.260264-141.441383-138.392954-6.609535-6.537903-6.609535-6.537903-13.446243 0.298805-107.416452 107.193371-214.759225 214.464513-322.327126 321.582159-5.198395 5.198395-8.391111 10.771321-10.32516 17.756409-16.566304 61.432141-33.354666 122.867352-50.069349 184.227862-1.482771 5.423523-2.970658 10.771321-4.455475 16.416901 0.298805 6.241145 4.680603 2.90005 6.979972 2.304486 66.561975-18.423605 133.121903-36.996612 199.684902-55.416124 4.973268-1.412163 8.838296-3.936659 12.475126-7.503904 107.642602-107.567901 215.359906-215.131709 322.999438-322.622862C794.605961 382.013507 794.605961 382.013507 785.096377 372.724956L785.096377 372.724956zM705.906803 372.801704c-40.630373 40.559764-81.195254 81.266885-121.752971 121.902374-59.650565 59.727313-119.377878 119.454626-178.956811 179.25357-4.157693 4.233418-8.688893 6.978948-14.411221 8.540514-21.765723 5.870708-43.38102 12.035104-65.075111 18.055215-2.894933 0.815575-6.758937 3.043313-6.537903-2.602268 5.423523-19.835767 11.295254-38.850843 15.601326-58.316174 3.048429-13.446243 9.806343-23.325241 19.388583-32.830733 89.144296-88.698135 177.916109-177.769776 266.839371-266.688945 8.91402-8.912997 18.121729-17.381879 27.036773-26.296923 3.196809-3.269463 5.500271-3.048429 8.91402 0 17.238616 15.525602 33.062 32.686447 49.92097 48.657186C711.553407 366.930997 709.325669 369.46061 705.906803 372.801704L705.906803 372.801704zM955.809433 164.725692c-4.532223-54.451146-49.697889-100.209306-110.170169-100.434433-29.714765-0.071631-55.786561 11.069103-77.106122 32.168654-26.593681 26.296923-52.894697 52.891627-79.490425 79.261205-4.234441 4.160763-4.455475 6.758937-0.071631 10.9197 17.08512 15.971763 33.876552 32.16763 50.664913 48.437176 32.537044 31.495318 64.998363 63.068408 97.314373 94.713128 3.864004 3.787256 6.014994 4.085038 9.952676 0.149403 26.003234-26.373671 52.372811-52.297087 78.371952-78.669734 20.72809-21.021779 30.309306-46.87254 31.499411-77.701686C956.549284 171.634032 956.103122 168.216189 955.809433 164.725692L955.809433 164.725692zM883.006314 215.538985c-12.923334 13.148461-26.14752 26.14752-39.07597 39.295981-2.001587 1.929955-3.044336 1.782599-4.973268-0.075725-16.119119-15.82236-32.31601-31.567973-48.585555-47.318702-8.395204-8.021697-16.785292-16.119119-25.255197-24.140817-2.231831-2.083451-2.082428-3.418866 0-5.425569 13.296841-13.148461 26.446325-26.446325 39.743166-39.593763 10.622942-10.474562 23.623024-16.048511 38.403658-16.048511 30.233582 0.149403 52.742225 22.955828 54.975079 50.145074 0.221034 1.709945 0.369414 3.490497 0.517793 4.383844C898.160455 192.21272 893.331473 205.064422 883.006314 215.538985L883.006314 215.538985zM954.321546 384.169613c-2.304486 0.667196-3.638877 2.673899-5.199419 4.233418-18.793018 18.794042-37.663808 37.58706-56.45785 56.382125 0.072655 101.250008 0.221034 202.502064-0.076748 303.754119-0.144286 43.087331-15.97074 79.93147-48.507784 108.681258-25.999141 23.028483-56.752562 35.508725-91.814102 35.508725-161.650657 0.226151-323.369875 0.226151-485.015416 0-33.507138-0.071631-63.21781-11.808954-88.698135-33.651424-33.876552-29.119201-50.366108-66.264193-50.366108-110.833271 0.071631-158.304446 0.071631-316.53726 0-474.763934-0.075725-43.900859 16.043395-80.600713 48.581462-109.647259 23.99653-21.390169 52.520167-33.276894 84.981487-34.764781 41.826618-2.00568 83.648119-0.667196 125.546368-0.815575 62.770626-0.225127 125.542274-0.149403 188.313923-0.076748 18.797112-18.717294 37.514405-37.438681 56.236815-56.232722 1.632173-1.632173 5.126764-3.044336 3.862981-5.64558-0.968048-2.00568-4.234441-0.892323-6.465249-0.892323-87.435375-0.072655-174.794002-0.222057-262.229376 0-48.729841 0.148379-97.464799-1.335415-146.193617 0.963954-37.737486 1.785669-70.945819 15.529695-98.874915 40.563858-37.885865 33.799804-56.678884 76.513628-56.607252 127.619586 0.149403 184.231955 0.075725 368.536564 0.075725 552.763402 0 51.925626 19.165502 95.164407 58.608839 129.035842 29.643134 25.4046 64.181765 39.148625 103.258759 39.148625 188.240245 0.37453 376.481514 0.297782 564.725852 0.076748 40.780799 0 76.586283-14.560624 106.896612-41.380456 37.808094-33.426297 56.308447-76.365248 56.45785-126.582977 0.370437-132.152832 0.149403-264.385483 0.072655-396.61404C955.435926 388.849192 956.178847 386.397351 954.321546 384.169613L954.321546 384.169613zM954.321546 384.169613" p-id="3993" fill="#d9d9d9"></path></svg>