<?xml version="1.0" standalone="no"?><!DOCTYPE svg PUBLIC "-//W3C//DTD SVG 1.1//EN" "http://www.w3.org/Graphics/SVG/1.1/DTD/svg11.dtd"><svg t="1483690827458" class="icon" style="" viewBox="0 0 1024 1024" version="1.1" xmlns="http://www.w3.org/2000/svg" p-id="1176" xmlns:xlink="http://www.w3.org/1999/xlink" width="16" height="16"><defs><style type="text/css"></style></defs><path d="M248 679.1c-34-99.4-99.9-173.5-168.8-199.9-0.9 11.2-1.4 22.5-1.4 34 0 147.4 73.4 277.5 185.7 356.1C275 813.4 271 746.4 248 679.1z" fill="#98C9D6" p-id="1177"></path><path d="M263.5 882c-2.6 0-5.1-0.8-7.2-2.3-57.7-40.4-105.8-94.6-138.8-156.6C83.3 659 65.3 586.4 65.3 513.3c0-10.6 0.5-22 1.5-35 0.3-4 2.5-7.6 5.8-9.7 3.4-2.1 7.5-2.5 11.3-1.1C158.5 496 226 575.6 259.9 675c22.8 66.6 28.4 136.6 15.9 196.9-0.9 4.2-3.8 7.6-7.7 9.2-1.5 0.6-3.1 0.9-4.6 0.9zM90.7 498.1c-0.2 5.3-0.3 10.3-0.3 15.1 0 69 17 137.4 49.3 197.9 28 52.6 67.5 99.2 114.7 135.8 6.8-51.2 0.4-108.6-18.4-163.8-29.1-85.1-83.8-154.3-145.3-185z" fill="#154B8B" p-id="1178"></path><path d="M630.2 370.5c0-93.5 44.2-176.1 111.7-226.1-66.6-41.6-145.3-65.7-229.6-65.7-228.5 0-415.7 176.5-433 400.5C148.1 505.6 214 579.7 248 679.1c23 67.4 27.1 134.4 15.5 190.3 70.5 49.4 156.2 78.4 248.8 78.4 194.3 0 358.8-127.5 414.3-303.5-11.2 1.5-22.6 2.4-34.2 2.4-144.8 0-262.2-123.7-262.2-276.2z" fill="#FAFCFC" p-id="1179"></path><path d="M512.3 960.4c-92.1 0-180.7-27.9-256.1-80.7-4.1-2.9-6.2-8-5.1-12.9 11.6-56 6.2-121.2-15.1-183.6C204.4 590.6 142.6 517 74.7 491c-5.2-2-8.5-7.2-8.1-12.8 8.7-111.9 58.9-215.8 141.3-292.6C290.8 108.5 398.9 66 512.2 66c83.7 0 165.4 23.4 236.3 67.6 3.5 2.2 5.8 6 5.9 10.2 0.2 4.2-1.7 8.2-5.1 10.7-32.2 23.8-58.9 55.7-77.4 92.3-19.1 37.8-29.2 80.6-29.2 123.7 0 70.5 26 136.8 73.3 186.6 47.1 49.6 109.7 77 176.3 77 10.4 0 21.3-0.8 32.4-2.3 4.3-0.6 8.6 1.1 11.4 4.4 2.8 3.3 3.7 7.8 2.4 12-14.1 44.8-35.2 86.9-62.6 125.2-27.1 37.8-59.7 71.1-97 98.8-77.4 57.6-169.7 88.2-266.6 88.2z m-234.9-96.8c69.6 46.8 150.7 71.5 234.9 71.5 91.5 0 178.5-28.8 251.6-83.3 35.2-26.2 66-57.6 91.6-93.3 22.1-30.9 39.8-64.3 52.8-99.7-5.4 0.3-10.7 0.5-15.8 0.5-73.5 0-142.7-30.1-194.6-84.8-51.8-54.5-80.3-127-80.3-204 0-47 11-93.8 31.9-135.1 17.3-34.3 41.4-65 70.2-89.5-63.1-35.7-134.5-54.5-207.4-54.5-106.9 0-208.9 40.1-287.1 112.8C149.6 274.5 102.8 369 92.6 471.1c71.2 31.3 134.7 108.4 167.3 203.9 21.7 63.6 27.9 130.2 17.5 188.6z" fill="#154B8B" p-id="1180"></path><path d="M741.9 144.4c-67.5 50-111.7 132.6-111.7 226.1 0 152.5 117.4 276.2 262.2 276.2 11.6 0 23-0.9 34.2-2.4 13.1-41.4 20.2-85.4 20.2-131 0-155.7-81.9-292.2-204.9-368.9z" fill="#98C9D6" p-id="1181"></path><path d="M892.5 659.3c-73.5 0-142.7-30.1-194.6-84.8-51.8-54.5-80.3-127-80.3-204 0-47 11-93.8 31.9-135.1 20.2-40 49.6-75 84.9-101.2 4.2-3.1 9.8-3.3 14.2-0.6 63.3 39.5 116.1 94.5 152.9 159.3 37.9 66.8 58 143 58 220.3 0 45.9-7 91.3-20.7 134.8-1.5 4.7-5.5 8-10.3 8.7-12.4 1.8-24.5 2.6-36 2.6z m-150-499.5c-29.1 23.2-53.4 53.1-70.5 87-19.1 37.8-29.2 80.6-29.2 123.7 0 70.5 26 136.8 73.3 186.6 47.1 49.6 109.7 77 176.3 77 7.9 0 16.1-0.4 24.5-1.3 11.4-38.7 17.2-78.9 17.2-119.5 0-72.9-18.9-144.8-54.7-207.8-33.2-58.6-80.4-108.8-136.9-145.7z" fill="#154B8B" p-id="1182"></path><path d="M677.3 927.9c-2 0-4-0.5-5.8-1.4C582 879.8 503 803.7 443.2 706.3c-61.3-99.7-100-217.9-111.9-341.9-8.5-88.9-3.1-176.6 16-260.4 1.6-6.8 8.3-11.1 15.1-9.5 6.8 1.6 11.1 8.3 9.5 15.1-18.5 81.2-23.8 166.1-15.5 252.4 11.5 120.1 48.9 234.6 108.2 331 57.5 93.5 133 166.4 218.4 211 6.2 3.2 8.6 10.9 5.4 17-2.2 4.4-6.6 6.9-11.1 6.9z" fill="#154B8B" p-id="1183"></path></svg>