<?xml version="1.0" standalone="no"?><!DOCTYPE svg PUBLIC "-//W3C//DTD SVG 1.1//EN" "http://www.w3.org/Graphics/SVG/1.1/DTD/svg11.dtd"><svg t="1483690662360" class="icon" style="" viewBox="0 0 1024 1024" version="1.1" xmlns="http://www.w3.org/2000/svg" p-id="1035" xmlns:xlink="http://www.w3.org/1999/xlink" width="16" height="16"><defs><style type="text/css"></style></defs><path d="M391.4 194.6c80 80 88 186.2 27.4 246.7S252.1 493.9 172 413.9 60.6 204.2 121.1 143.7s190.2-29.2 270.3 50.9z" fill="#9ED5E4" p-id="1036"></path><path d="M319.4 497c-6 0-12.1-0.3-18.3-0.9-49.7-5-99.5-30.2-140.3-71-41.2-41.2-71.3-96-82.5-150.4-12.2-59.2-1-109.7 31.6-142.2 32.5-32.5 83-43.8 142.2-31.6 54.4 11.2 109.2 41.3 150.4 82.5 40.8 40.8 66 90.6 71 140.3 5 50-10.5 95.7-43.6 128.8-29 29-67.7 44.5-110.5 44.5z m-112-369.2c-31.3 0-57.2 9.2-75.1 27.1-24.8 24.8-32.9 65-23 113.4 10 48.5 36.9 97.5 73.9 134.4 35.6 35.6 78.6 57.6 121.1 61.9 40.3 4 77-8.2 103.3-34.5 26.3-26.3 38.5-62.9 34.5-103.3-4.3-42.4-26.2-85.4-61.9-121.1-37-37-86-63.9-134.4-73.9-13.5-2.7-26.3-4-38.4-4z" fill="#154B8B" p-id="1037"></path><path d="M418.8 441.3L870.5 893" fill="#9ED5E4" p-id="1038"></path><path d="M870.5 908.8c-4.1 0-8.1-1.5-11.2-4.6L407.6 452.5c-6.2-6.2-6.2-16.2 0-22.4 6.2-6.2 16.2-6.2 22.4 0l451.7 451.7c6.2 6.2 6.2 16.2 0 22.4-3.1 3.1-7.2 4.6-11.2 4.6z" fill="#154B8B" p-id="1039"></path><path d="M850.4 198.3L155.9 892.8" fill="#9ED5E4" p-id="1040"></path><path d="M155.9 908.6c-4.1 0-8.1-1.5-11.2-4.6-6.2-6.2-6.2-16.2 0-22.4l694.5-694.5c6.2-6.2 16.2-6.2 22.4 0 6.2 6.2 6.2 16.2 0 22.4L167.1 904c-3.1 3.1-7.1 4.6-11.2 4.6z" fill="#154B8B" p-id="1041"></path><path d="M719.9 523.6L525.2 328.9 753.1 101c6.2-6.2 16.2-6.2 22.4 0 6.2 6.2 6.2 16.2 0 22.4L570 328.9l149.9 149.9 205.5-205.5c6.2-6.2 16.2-6.2 22.4 0 6.2 6.2 6.2 16.2 0 22.4L719.9 523.6z" fill="#154B8B" p-id="1042"></path></svg>