<?xml version="1.0" standalone="no"?><!DOCTYPE svg PUBLIC "-//W3C//DTD SVG 1.1//EN" "http://www.w3.org/Graphics/SVG/1.1/DTD/svg11.dtd"><svg t="1483429567150" class="icon" style="" viewBox="0 0 1125 1024" version="1.1" xmlns="http://www.w3.org/2000/svg" p-id="2447" xmlns:xlink="http://www.w3.org/1999/xlink" width="17.578125" height="16"><defs><style type="text/css"></style></defs><path d="M1115.139868 312.902042C1045.95497 214.522448 976.767841 116.100346 907.57739 17.699499 901.415595 7.968677 890.233879 1.063504 878.752154 1.063504L542.080523 1.063504 521.166894 1.063504 215.182313 1.063504C204.892843 1.063504 197.10662 4.920252 191.75647 10.741714 191.577338 10.926444 191.399344 11.108898 191.220213 11.299226 191.155314 11.380964 191.084772 11.455966 191.015367 11.537704 189.399905 13.28747 187.874008 15.264563 186.493656 17.511401 125.868578 115.970458 65.265892 214.457503 4.641951 312.902042-3.193515 325.637643-0.431673 340.702913 8.20984 350.944233 8.723706 351.707773 9.261056 352.46121 9.834268 353.191117 181.455804 572.710002 353.060591 792.288188 524.669838 1011.800337 532.175076 1021.406913 541.317029 1024.429579 549.969783 1023.086182 557.474975 1023.097378 565.144781 1019.804877 571.673805 1011.800337 751.082701 792.288188 930.521816 572.710002 1109.935218 353.191117 1110.86105 352.060393 1111.690627 350.883794 1112.464225 349.682574 1120.776602 339.398702 1123.582089 324.913289 1115.139868 312.902042L1115.139868 312.902042 1115.139868 312.902042ZM1022.544828 296.433983 817.966967 296.433983C841.339062 232.679879 864.704466 168.920132 888.077699 105.166029 932.899681 168.914534 977.71611 232.675374 1022.544828 296.433983L1022.544828 296.433983 1022.544828 296.433983ZM548.134866 83.153033C596.8237 154.234379 645.51135 225.33698 694.200183 296.433983L397.584794 296.433983C447.763706 225.33698 497.940343 154.244437 548.134866 83.153033L548.134866 83.153033 548.134866 83.153033ZM723.005258 362.911835C665.007718 521.123886 607.004535 679.33589 549.018192 837.570332 492.622643 678.843324 436.016606 520.522684 377.314873 362.911835L723.005258 362.911835 723.005258 362.911835 723.005258 362.911835ZM756.861656 270.554135C710.511502 202.88958 664.168084 135.21606 617.824666 67.540264L831.271276 67.540264C806.470679 135.210462 781.662254 202.88512 756.861656 270.554135L756.861656 270.554135 756.861656 270.554135ZM339.869377 263.325468C315.055309 197.918948 289.804652 132.654603 263.989794 67.541402L478.055492 67.541402C431.994197 132.795642 385.930672 198.059986 339.869377 263.325468L339.869377 263.325468 339.869377 263.325468ZM208.88394 107.933468C233.593833 170.631896 257.789906 233.470225 281.599772 296.428385L92.840664 296.428385C131.52661 233.595608 170.209189 170.760647 208.88394 107.933468L208.88394 107.933468 208.88394 107.933468ZM306.592927 362.911835C367.324319 525.487764 425.765228 688.83051 483.958693 852.587497 356.364288 689.364537 228.775481 526.138209 101.20233 362.911835L306.592927 362.911835 306.592927 362.911835 306.592927 362.911835ZM793.598498 362.911835 1016.576683 362.911835C881.786015 527.834271 747.009911 692.749926 612.2349 857.661121 672.680846 692.744329 733.141356 527.828673 793.598498 362.911835L793.598498 362.911835 793.598498 362.911835Z" p-id="2448" fill="#2b8ff7"></path></svg>